<?xml version="1.0" encoding="UTF-8" standalone="no"?>
<!-- Created with Inkscape (http://www.inkscape.org/) -->

<svg
   xmlns:dc="http://purl.org/dc/elements/1.1/"
   xmlns:cc="http://creativecommons.org/ns#"
   xmlns:rdf="http://www.w3.org/1999/02/22-rdf-syntax-ns#"
   xmlns:svg="http://www.w3.org/2000/svg"
   xmlns="http://www.w3.org/2000/svg"
   xmlns:sodipodi="http://sodipodi.sourceforge.net/DTD/sodipodi-0.dtd"
   xmlns:inkscape="http://www.inkscape.org/namespaces/inkscape"
   width="350"
   height="350"
   id="svg2"
   sodipodi:version="0.32"
   inkscape:version="0.47 r22583"
   version="1.0"
   sodipodi:docname="Right-hand_grip_rule[1].svg"
   inkscape:output_extension="org.inkscape.output.svg.inkscape">
  <defs
     id="defs4">
    <marker
       inkscape:stockid="Arrow1Sstart"
       orient="auto"
       refY="0"
       refX="0"
       id="Arrow1Sstart"
       style="overflow: visible;">
      <path
         id="path3250"
         d="M 0,0 L 5,-5 L -12.5,0 L 5,5 L 0,0 z"
         style="fill-rule: evenodd; stroke: rgb(0, 0, 0); stroke-width: 1pt; marker-start: none;"
         transform="matrix(0.2, 0, 0, 0.2, 1.2, 0)" />
    </marker>
    <marker
       inkscape:stockid="Arrow1Lstart"
       orient="auto"
       refY="0"
       refX="0"
       id="Arrow1Lstart"
       style="overflow: visible;">
      <path
         id="path3238"
         d="M 0,0 L 5,-5 L -12.5,0 L 5,5 L 0,0 z"
         style="fill-rule: evenodd; stroke: rgb(0, 0, 0); stroke-width: 1pt; marker-start: none;"
         transform="matrix(0.8, 0, 0, 0.8, 10, 0)" />
    </marker>
    <inkscape:perspective
       sodipodi:type="inkscape:persp3d"
       inkscape:vp_x="0 : 526.18109 : 1"
       inkscape:vp_y="0 : 1000 : 0"
       inkscape:vp_z="744.09448 : 526.18109 : 1"
       inkscape:persp3d-origin="372.04724 : 350.78739 : 1"
       id="perspective10" />
    <inkscape:perspective
       id="perspective2447"
       inkscape:persp3d-origin="372.04724 : 350.78739 : 1"
       inkscape:vp_z="744.09448 : 526.18109 : 1"
       inkscape:vp_y="0 : 1000 : 0"
       inkscape:vp_x="0 : 526.18109 : 1"
       sodipodi:type="inkscape:persp3d" />
  </defs>
  <sodipodi:namedview
     id="base"
     pagecolor="#ffffff"
     bordercolor="#666666"
     borderopacity="1.0"
     gridtolerance="10000"
     guidetolerance="10"
     objecttolerance="10"
     inkscape:pageopacity="0.0"
     inkscape:pageshadow="2"
     inkscape:zoom="0.93247865"
     inkscape:cx="261.68748"
     inkscape:cy="159.38742"
     inkscape:document-units="px"
     inkscape:current-layer="layer1"
     showgrid="false"
     inkscape:window-width="1280"
     inkscape:window-height="753"
     inkscape:window-x="-4"
     inkscape:window-y="-4"
     inkscape:object-paths="true"
     inkscape:object-nodes="true"
     inkscape:window-maximized="1" />
  <metadata
     id="metadata7">
    <rdf:RDF>
      <cc:Work
         rdf:about="">
        <dc:format>image/svg+xml</dc:format>
        <dc:type
           rdf:resource="http://purl.org/dc/dcmitype/StillImage" />
        <dc:title></dc:title>
      </cc:Work>
    </rdf:RDF>
  </metadata>
  <g
     inkscape:label="Layer 1"
     inkscape:groupmode="layer"
     id="layer1"
     transform="translate(-319.089, -547.474)">
    <path
       style="fill:#000000"
       d="m 429.10157,777.32719 -37.07745,78.10506 c -1.08187,0.31756 -7.22433,-2.28192 -7.48423,-3.16733 l 36.4605,-78.39595"
       id="path2849" />
    <path
       style="fill:#000000"
       d="m 421.00039,773.86897 93.94479,-199.10346 -8.9058,-4.24466 c 8.29722,-6.25722 16.11971,-13.22086 24.84806,-18.87515 0.5392,0.10037 1.34539,28.88797 0.84608,30.21228 l -8.2855,-3.75672 -94.34645,199.22593"
       id="path2843"
       sodipodi:nodetypes="ccccccc" />
    <g
       id="g3635"
       transform="translate(-14.798183,5.016382)">
      <path
         sodipodi:nodetypes="ccsssssssscccsss"
         id="path2847"
         d="m 519.34032,820.55079 -10.91845,-5.67423 c -1.54951,-1.21879 -3.31137,-2.3517 -3.91525,-2.51757 -1.33255,-0.36601 -4.79099,-4.47735 -10.46678,-12.44273 -5.8026,-8.14336 -8.53575,-17.46385 -7.37311,-25.14355 0.46564,-3.07579 1.17836,-5.96175 1.58382,-6.41327 0.40545,-0.4515 -0.15162,-3.12438 -1.23793,-5.93971 -3.47681,-9.01057 -3.05251,-14.17773 2.00446,-24.40987 2.47003,-4.99778 4.39933,-10.42143 4.28733,-12.05253 -0.11198,-1.63112 0.0107,-5.5067 0.2727,-8.61242 0.63142,-7.48574 4.77229,-12.11774 13.86386,-15.50816 l 6.32501,-2.35874 0.28067,-5.02902 c 0.17558,-3.14605 1.4293,-6.94275 3.34842,-10.1402 2.72745,-4.54425 3.75014,-5.39347 9.21983,-7.65591 9.5668,-3.95713 35.30661,4.18116 56.48083,10.893"
         style="fill:#000000" />
      <path
         id="path2845"
         d="m 583.09573,687.54588 c 0.27463,0.93556 19.1549,9.07861 24.05528,10.37503 5.32628,1.40908 8.36427,0.2428 10.39872,-3.99207 1.12517,-2.34213 3.65691,-12.9571 7.75606,-32.51918 2.84642,-13.58385 5.41415,-16.98955 21.30699,-28.26052 9.51627,-6.74881 12.29578,-7.95253 17.8772,-7.74217 13.49664,0.50873 19.00744,15.23297 9.38947,25.08763 -4.12421,4.22568 -7.26095,12.34529 -7.47612,19.35229 -0.092,2.99724 -0.5971,7.45162 -1.12238,9.89864 -1.12724,5.25138 -0.76232,11.55563 1.57196,27.15666 1.73568,11.60024 1.88781,20.57794 0.47571,28.07277 -1.45802,7.73858 0.2664,30.83041 3.42175,45.82102 1.08463,5.15288 3.50678,11.63377 8.07299,21.60069 5.01618,10.94913 7.10503,16.6817 9.04061,24.81068 1.38445,5.81437 2.35933,10.86059 2.16641,11.21384 l -7.53532,1.36366 -2.58698,-10.91771 c -2.03311,-8.5802 -3.7844,-13.40749 -8.17974,-22.54672 -3.07602,-6.39597 -6.4829,-14.66149 -7.57086,-18.36782 -4.24335,-14.45587 -6.45716,-41.21374 -4.66377,-56.36981 0.94519,-7.98781 0.37891,-16.40952 -2.20654,-32.8157 -1.21738,-7.72507 -1.23038,-14.95495 -0.0384,-21.37747 0.59974,-3.2315 1.09757,-8.13152 1.10626,-10.88893 0.015,-4.75759 3.65384,-12.82919 10.58897,-23.48825 2.6695,-4.10296 1.2236,-8.42247 -3.1003,-9.2618 -4.39747,-0.85362 -5.19768,-0.53355 -13.85847,5.5429 -15.33347,10.75805 -16.3017,12.25988 -20.46119,31.73712 -4.84944,22.7081 -6.12527,26.92307 -9.18679,30.35081 -4.28914,4.8022 -10.984,6.48477 -17.71907,4.45318 -5.2231,-1.57551 -21.9594,-8.7714 -24.55448,-10.55739 -1.12596,-0.7749 -2.00331,0.319 -4.24273,5.29 -3.90564,8.66961 -3.90301,8.41618 -0.13771,13.25787 4.2803,5.50393 7.4115,15.55883 6.26048,20.10362 -0.44319,1.74994 -1.66677,4.0282 -2.71909,5.0628 -1.27228,1.25088 -1.55497,2.32141 -0.84376,3.19537 0.58822,0.72285 1.88726,3.29402 2.88672,5.71369 1.45615,3.52529 1.60999,5.61029 0.77423,10.49376 -1.40809,8.22789 -3.2383,10.20414 -10.93162,11.80406 l -6.1097,1.2706 2.00037,5.78806 c 3.59651,10.40654 -0.34329,17.40833 -11.67009,20.73999 -5.18949,1.52645 -6.38953,2.19822 -6.04197,3.38227 0.75881,2.58506 -1.08251,9.82049 -3.38079,13.2846 -1.22127,1.84081 -3.56748,4.03277 -5.21378,4.87103 l -2.99327,1.52411 8.91774,9.77073 c 9.23414,8.19583 15.68858,9.83631 27.74171,14.02478 19.21133,6.67593 29.13382,3.01546 34.60415,10.05476 2.33852,3.00922 12.11951,8.98444 11.9285,9.20697 -0.77535,0.90326 -1.53092,1.831 -1.98259,2.38326 -0.45166,0.55227 -0.40374,0.31374 -2.38354,2.94272 0,0 -9.17112,-4.61704 -13.98383,-10.11183 -2.25175,-2.57088 -13.63922,-1.70543 -31.15118,-6.63538 -15.37584,-4.32858 -20.78742,-8.72516 -29.89633,-15.52542 -7.73376,-5.77365 -9.99627,-10.12366 -15.28678,-12.9498 l -6.86852,-3.66909"
         style="fill:#000000" />
      <path
         id="path2841"
         d="m 540.1948,808.52091 c 3.0723,-6.94325 -0.38671,-11.37788 -12.04692,-15.4448 -9.63719,-3.36131 -17.76427,-7.51484 -26.40744,-13.4962 -4.12416,-2.85404 -6.75469,-4.07675 -7.16284,-3.32942 -1.42671,2.61232 1.75929,12.62448 5.95574,18.71619 6.33058,9.1897 8.91449,11.47984 17.40236,15.42384 10.70444,4.97398 19.56004,4.23016 22.2591,-1.86961 z"
         style="fill:#ffffff;fill-opacity:1" />
      <path
         id="path2839"
         d="m 559.4718,786.36352 c 1.7788,-3.257 0.20174,-8.53607 -3.90283,-13.06432 -2.50494,-2.76351 -4.70415,-3.85886 -10.32189,-5.141 -3.9263,-0.89609 -7.52906,-1.97977 -8.00613,-2.40817 -0.47708,-0.4284 -4.58752,-1.97909 -9.13434,-3.44597 -11.50467,-3.71161 -19.18988,-8.32854 -25.99248,-15.6151 l -5.82123,-6.23538 -1.87095,4.82714 c -1.67829,4.33004 -1.6732,5.50087 0.0494,11.36933 1.34719,4.79224 4.34379,8.52757 7.00185,12.67499 3.75278,3.87355 19.77602,12.80335 28.01661,15.61375 4.79787,1.63628 10.8676,3.86987 13.48827,4.96352 4.06264,1.69541 5.52924,1.76409 9.95141,0.46601 3.90721,-1.14692 5.52098,-2.13478 6.54229,-4.0048 l 2e-5,0 z"
         style="fill:#ffffff;fill-opacity:1" />
      <path
         id="path2837"
         d="m 573.78519,759.00912 c 1.33064,-3.94266 0.50038,-8.55239 -2.12319,-11.78811 -1.74461,-2.1517 -4.30422,-3.38743 -9.89592,-4.77756 -5.01714,-1.24728 -12.10114,-4.45955 -21.15709,-9.59374 -13.74606,-7.79321 -19.5508,-12.66518 -22.87983,-19.20321 -2.56462,-5.03676 -4.48494,-5.82011 -9.00073,-3.67159 -7.30356,3.47487 -8.39143,6.44038 -6.83384,18.62866 0.84637,6.62289 0.86806,6.66431 6.80142,12.98646 6.81701,7.26371 9.49191,8.75306 26.29826,14.64237 12.98792,4.55126 18.88787,5.93243 27.40469,6.41539 7.34693,0.41662 10.34044,-0.54001 11.38623,-3.63867 z"
         style="fill:#ffffff;fill-opacity:1" />
      <path
         sodipodi:nodetypes="cssssscccssccscc"
         id="path2453"
         d="m 573.15364,733.32767 c 1.24909,-1.22808 1.25896,-2.57858 0.0489,-6.70074 -1.28113,-4.36446 -2.83734,-6.57419 -10.06507,-14.29185 -9.37111,-10.00633 -13.8979,-17.825 -10.07587,-17.40303 1.12471,0.12417 3.07828,0.15129 4.34126,0.0603 1.263,-0.091 2.52149,0.53447 2.79665,1.38999 0.27515,0.85552 1.66405,2.74244 3.08645,4.19314 l 10.20952,10.23114 3.88678,-7.74471 c 1.27362,-2.92447 2.97966,-7.14761 2.81957,-7.69301 -0.87705,-2.98784 -41.84007,-14.32972 -46.97674,-12.80971 -4.81334,1.42433 -8.97972,4.78251 -10.15861,8.18804 -3.22604,10.36067 0.88726,18.8667 8.00629,26.3852 6.52775,5.51073 27.37662,16.60605 33.0933,17.61154 5.51845,0.97062 6.75855,0.7752 8.98753,-1.41627 l 4e-5,-3e-5 z"
         style="fill:#ffffff;fill-opacity:1" />
    </g>
    <path
       style="fill:none;stroke:#000000;stroke-width:9;stroke-linecap:round;stroke-linejoin:round;stroke-miterlimit:4;stroke-opacity:1;stroke-dashoffset:0;marker-start:url(#Arrow1Sstart)"
       d="m 362.61273,868.04327 c -23.91204,-14.30405 -38.06478,-32.11121 -33.02742,-43.63262 6.1891,-14.15572 39.01479,-13.48866 73.27162,1.48898 34.25683,14.97765 57.03642,38.62209 50.84732,52.7778 l -10e-6,4e-5 c -4.75651,10.8791 -25.24574,13.00326 -50.02621,6.60497"
       id="path3233" />
  </g>
</svg>
